<?xml version="1.0" standalone="no"?>
<!DOCTYPE svg PUBLIC "-//W3C//DTD SVG 20010904//EN"
 "http://www.w3.org/TR/2001/REC-SVG-20010904/DTD/svg10.dtd">
<svg version="1.0" xmlns="http://www.w3.org/2000/svg"
 width="500.000000pt" height="500.000000pt" viewBox="0 0 500.000000 500.000000"
 preserveAspectRatio="xMidYMid meet">

<g transform="translate(0.000000,500.000000) scale(0.100000,-0.100000)"
fill="#000000" stroke="none">
<path d="M3500 3992 c-61 -30 -75 -97 -30 -142 48 -48 150 -3 150 65 0 47 -8
64 -41 80 -35 19 -37 19 -79 -3z"/>
<path d="M3493 3770 c-37 -22 -63 -67 -62 -107 0 -15 3 -22 6 -15 8 19 41 14
54 -9 8 -15 9 -54 4 -125 -8 -117 2 -162 42 -194 42 -33 89 -27 134 19 29 28
39 47 39 70 0 29 -2 30 -21 19 -17 -11 -22 -10 -36 7 -12 16 -14 39 -9 125 7
124 -3 177 -39 208 -32 27 -70 28 -112 2z"/>
<path d="M2570 3761 c-90 -28 -181 -110 -200 -180 -15 -58 3 -122 48 -166 22
-21 72 -50 126 -72 113 -47 146 -74 146 -118 0 -47 -33 -85 -75 -85 -41 0 -76
38 -102 110 -10 28 -23 50 -30 50 -22 0 -72 -51 -83 -86 -21 -63 10 -138 70
-169 81 -42 227 0 308 89 53 57 72 101 72 161 0 87 -44 128 -171 160 -97 24
-141 53 -157 99 -11 33 -10 42 3 63 9 13 27 29 41 35 34 16 75 -15 92 -69 16
-49 36 -48 82 4 51 57 37 133 -30 168 -31 16 -98 18 -140 6z"/>
<path d="M3211 3699 c-31 -19 -33 -23 -28 -61 l5 -40 -29 30 c-37 38 -77 48
-120 29 -77 -33 -122 -106 -127 -208 -14 -247 194 -390 275 -189 20 52 22 53
28 27 9 -34 50 -67 84 -67 56 0 121 65 121 120 0 18 -2 19 -20 8 -17 -11 -22
-10 -30 2 -23 35 -33 103 -33 223 0 112 -2 129 -18 137 -29 16 -72 11 -108
-11z m-46 -135 c32 -21 38 -57 25 -139 -14 -88 -33 -125 -65 -125 -38 0 -68
67 -69 150 -1 112 43 158 109 114z"/>
<path d="M1939 3571 c-35 -35 -38 -77 -8 -115 16 -21 29 -26 64 -26 36 0 48 5
69 31 53 62 20 139 -58 139 -28 0 -45 -7 -67 -29z"/>
<path d="M1097 3370 c-111 -43 -184 -138 -175 -229 8 -85 54 -128 193 -186 91
-37 115 -53 126 -83 12 -31 -5 -88 -31 -102 -54 -29 -105 4 -136 88 -23 62
-29 68 -56 53 -65 -34 -88 -135 -46 -197 32 -46 68 -64 130 -64 73 0 116 14
178 57 123 87 164 219 94 303 -20 24 -49 37 -138 65 -126 39 -155 61 -163 122
-6 47 20 76 69 76 37 0 64 -29 74 -79 7 -40 11 -41 55 -11 46 31 68 91 48 132
-34 71 -125 93 -222 55z"/>
<path d="M1965 3371 c-17 -10 -39 -30 -48 -45 -22 -34 -33 -86 -18 -86 6 0 11
5 11 10 0 6 9 10 20 10 32 0 42 -43 35 -147 -9 -112 -2 -152 30 -187 56 -60
168 -11 182 79 5 33 3 38 -8 28 -18 -18 -46 -16 -53 3 -3 9 -6 74 -6 144 0
142 -8 173 -51 196 -37 19 -58 18 -94 -5z"/>
<path d="M1722 3297 c-11 -12 -32 -47 -46 -77 l-24 -55 -12 30 c-19 48 -39 65
-81 65 -71 0 -113 -35 -129 -107 -8 -33 3 -55 14 -28 3 8 12 15 19 15 30 0 41
-33 48 -143 11 -141 15 -160 44 -191 46 -49 125 -27 144 40 7 25 3 50 -21 118
-32 91 -32 142 -3 166 24 20 66 15 85 -11 l18 -23 31 31 c27 28 31 38 31 86 0
94 -65 140 -118 84z"/>
<path d="M2699 2895 c-20 -13 -40 -32 -44 -42 -6 -16 -8 -15 -21 9 -18 34 -43
48 -88 48 -38 0 -90 -37 -101 -71 l-7 -21 -21 20 c-28 26 -69 42 -108 42 -39
0 -83 -43 -99 -97 -12 -40 -13 -40 -39 -27 -38 20 -74 17 -106 -8 -33 -25 -58
-82 -50 -109 5 -16 1 -19 -28 -19 -62 0 -107 -59 -107 -142 0 -14 -11 -50 -25
-80 -37 -80 -35 -161 9 -260 69 -159 175 -271 316 -335 41 -19 86 -41 100 -48
112 -62 123 -66 203 -72 160 -10 329 50 425 150 28 30 54 68 58 83 4 16 24 49
46 73 96 110 144 268 135 440 -9 161 -32 216 -117 278 -25 17 -59 44 -77 58
-17 14 -44 30 -60 35 -18 7 -36 26 -51 54 -37 69 -84 82 -143 41z m99 -18 c43
-35 56 -124 28 -191 -10 -25 -16 -67 -16 -120 0 -63 -4 -88 -20 -114 -35 -58
-96 -68 -141 -23 -25 25 -29 37 -29 83 0 29 7 76 16 103 9 31 13 66 9 92 -9
61 11 122 52 161 37 34 68 37 101 9z m-218 6 c0 -5 -5 -15 -11 -23 -9 -12 -10
-11 -4 5 5 16 4 18 -6 8 -10 -10 -10 -16 -1 -25 9 -9 7 -15 -6 -25 -9 -8 -11
-12 -4 -8 6 3 12 2 12 -4 0 -10 -38 -26 -45 -19 -3 2 2 17 10 32 8 16 15 33
15 40 -1 6 -9 -5 -20 -25 -23 -43 -70 -79 -70 -54 0 25 28 72 52 89 23 16 78
22 78 9z m-313 -72 c-33 -50 -43 -57 -33 -23 6 19 50 72 60 72 2 0 -10 -22
-27 -49z m-109 -71 c17 0 15 -29 -3 -36 -8 -3 -17 -15 -21 -26 -5 -16 -12 -19
-33 -15 -20 4 -28 2 -28 -8 0 -8 4 -12 9 -9 4 3 8 0 8 -5 0 -6 -11 -11 -25
-11 -21 0 -25 5 -25 31 0 41 51 94 83 85 12 -3 28 -6 35 -6z m295 -39 c-9 -12
-22 -21 -27 -21 -5 0 1 11 14 25 28 30 39 26 13 -4z m-213 -18 c0 -20 -3 -24
-11 -16 -7 7 -9 19 -6 27 10 24 17 19 17 -11z m-40 13 c0 -2 -8 -10 -17 -17
-16 -13 -17 -12 -4 4 13 16 21 21 21 13z m842 -25 c9 -11 14 -22 11 -25 -4 -3
-1 -6 5 -6 7 0 11 -3 10 -7 -3 -13 24 -63 34 -63 4 0 8 -5 8 -11 0 -5 -4 -8
-9 -5 -5 4 -12 1 -14 -4 -3 -6 -4 -5 -3 2 2 7 -15 41 -36 76 -36 60 -40 82 -6
43z m-158 -21 c-10 -16 -20 -27 -23 -25 -6 7 21 55 31 55 5 0 1 -13 -8 -30z
m-485 -15 c-12 -19 -23 -35 -25 -35 -6 0 14 40 29 58 18 23 16 12 -4 -23z
m-369 -49 c8 -10 9 -33 5 -69 -6 -48 -4 -58 14 -76 12 -12 34 -21 50 -21 26 0
29 -4 34 -37 7 -59 -30 -79 -89 -48 -16 8 -39 15 -51 15 -28 0 -80 68 -89 116
-8 42 11 99 39 119 27 19 71 19 87 1z m331 -19 c-10 -9 -11 -8 -5 6 3 10 9 15
12 12 3 -3 0 -11 -7 -18z m749 -57 c0 -11 -2 -20 -4 -20 -2 0 -6 9 -9 20 -3
11 -1 20 4 20 5 0 9 -9 9 -20z m-239 -67 c-12 -20 -14 -14 -5 12 4 9 9 14 11
11 3 -2 0 -13 -6 -23z m-632 7 c10 -5 22 -25 25 -44 9 -48 47 -76 103 -76 59
0 66 -21 22 -66 -36 -37 -59 -43 -80 -18 -18 22 -64 44 -93 44 -32 0 -56 43
-56 99 0 59 34 86 79 61z m859 -19 c-7 -9 -13 -18 -15 -20 -1 -2 -1 5 0 16 0
11 7 20 14 20 10 0 10 -4 1 -16z m-1205 -32 c-6 -6 -9 -18 -6 -25 3 -8 0 -14
-7 -14 -6 0 -8 -4 -5 -10 3 -5 2 -26 -4 -45 -5 -21 -6 -33 0 -30 5 4 9 -6 9
-20 0 -14 7 -40 16 -58 20 -39 80 -107 88 -100 3 3 8 -2 12 -11 3 -9 13 -16
21 -16 8 0 11 -5 7 -12 -5 -8 -2 -9 10 -5 11 5 15 3 10 -5 -5 -8 -2 -9 9 -5 9
3 38 -1 64 -10 27 -9 55 -18 63 -21 23 -7 67 -11 150 -13 41 -1 60 -4 42 -6
-18 -2 -30 -9 -27 -14 4 -5 -3 -9 -15 -9 -12 0 -19 3 -17 8 3 4 -18 8 -46 8
-71 2 -107 8 -107 16 0 4 -7 5 -15 2 -8 -4 -27 1 -41 11 -14 9 -28 14 -31 11
-8 -7 -73 28 -100 54 -13 11 -23 18 -23 14 0 -4 -9 1 -20 11 -12 10 -18 25
-15 32 2 8 1 11 -4 8 -14 -8 -41 35 -34 53 5 11 3 13 -6 7 -10 -6 -11 -2 -6
15 5 17 4 21 -5 15 -17 -11 -7 109 10 130 7 8 9 15 6 15 -4 0 -2 9 4 21 7 11
14 18 18 15 3 -4 1 -11 -5 -17z m1191 -7 c3 -5 -1 -9 -9 -9 -8 0 -12 4 -9 9 3
4 7 8 9 8 2 0 6 -4 9 -8z m-21 -37 c4 -8 3 -16 -1 -19 -4 -3 -9 4 -9 15 -2 23
3 25 10 4z m-453 -3 c0 -12 -39 -46 -45 -41 -6 7 24 49 36 49 5 0 9 -4 9 -8z
m210 -20 c0 -5 -7 -17 -15 -28 -15 -19 -20 -8 -9 20 6 17 24 22 24 8z m-756
-45 c25 -23 35 -39 30 -50 -3 -10 -11 -17 -16 -17 -6 0 -8 -9 -5 -20 3 -13 0
-20 -10 -20 -8 0 -11 -5 -7 -11 4 -8 -1 -9 -16 -4 -26 8 -80 60 -80 77 0 6 -3
8 -6 5 -8 -7 18 -49 47 -78 15 -15 16 -19 4 -19 -8 0 -15 5 -15 10 0 6 -6 9
-12 8 -19 -4 -61 86 -53 111 19 62 79 65 139 8z m460 -35 c-1 -7 -2 -19 -2
-27 -4 -37 -114 -79 -150 -57 -27 17 16 81 67 100 30 11 86 0 85 -16z m-264 5
c34 -17 70 -74 70 -112 0 -52 -39 -80 -112 -80 -55 0 -62 3 -89 33 -42 46 -40
93 5 138 37 37 80 44 126 21z m438 -52 c1 -11 -11 -34 -28 -53 -16 -18 -30
-37 -30 -43 0 -5 -5 -9 -11 -9 -5 0 -8 4 -5 8 3 5 -5 8 -17 8 -15 -1 -23 6
-25 21 -3 23 24 73 40 73 5 0 2 -10 -6 -22 -9 -12 -16 -27 -16 -33 1 -9 32 42
36 58 1 4 2 10 3 13 0 3 13 4 29 2 18 -2 28 -10 30 -23z m0 -57 c-14 -18 -31
-34 -38 -36 -7 -3 -1 8 13 24 15 16 27 32 27 36 0 5 5 8 11 8 6 0 0 -14 -13
-32z m37 -77 c3 -5 0 -13 -6 -17 -7 -4 -9 -3 -5 4 3 5 0 13 -6 15 -9 4 -10 6
-1 6 6 1 14 -3 18 -8z m-763 -30 c24 -16 53 -32 66 -35 12 -4 22 -12 22 -18 0
-5 7 -7 16 -4 9 4 13 2 8 -5 -4 -8 1 -9 16 -4 15 5 20 3 16 -3 -10 -16 15 -26
25 -11 8 12 12 11 23 -3 7 -10 22 -18 32 -17 18 0 18 1 -1 9 -13 6 -15 9 -5 9
8 0 22 -4 30 -9 12 -8 11 -11 -8 -16 -17 -5 -20 -9 -11 -15 8 -5 17 -3 22 4 6
8 10 9 13 1 3 -7 20 -8 52 -3 75 12 93 8 24 -6 -71 -14 -132 -12 -142 6 -4 6
-12 9 -18 5 -14 -9 -43 4 -36 16 4 6 -1 8 -13 4 -19 -6 -57 20 -65 45 -2 7
-12 9 -27 4 -23 -7 -23 -7 8 -26 17 -10 31 -24 31 -31 0 -6 3 -8 7 -5 8 9 34
-13 28 -24 -3 -4 3 -7 12 -7 21 1 93 -18 111 -31 10 -6 8 -10 -10 -15 l-23 -6
29 -19 c17 -11 33 -18 38 -15 4 3 8 0 8 -5 0 -15 -5 -14 -53 11 -23 12 -45 21
-49 20 -5 -1 -8 2 -8 7 0 5 -10 13 -22 17 -28 8 -168 150 -168 169 0 8 -8 19
-17 24 -10 6 -15 11 -11 11 4 0 26 -13 50 -29z m596 -28 c-10 -2 -28 -2 -40 0
-13 2 -5 4 17 4 22 1 32 -1 23 -4z m-103 -13 c-19 -8 -19 -9 -1 -9 11 -1 17
-4 13 -7 -3 -4 -18 -3 -34 0 -21 6 -24 9 -12 17 7 5 23 8 34 8 l20 0 -20 -9z
m-430 -20 c3 -6 -1 -7 -9 -4 -18 7 -21 14 -7 14 6 0 13 -4 16 -10z m279 -42
c-7 -11 -46 -10 -63 1 -8 5 1 8 27 7 22 0 38 -4 36 -8z m101 -28 c-11 -5 -31
-8 -45 -8 -23 0 -22 1 5 8 42 11 65 11 40 0z m-98 -16 c-3 -3 -12 -4 -19 -1
-8 3 -5 6 6 6 11 1 17 -2 13 -5z m-20 -30 c-3 -3 -12 -4 -19 -1 -8 3 -5 6 6 6
11 1 17 -2 13 -5z m81 -11 c-10 -2 -26 -2 -35 0 -10 3 -2 5 17 5 19 0 27 -2
18 -5z m-13 -23 c12 -5 -3 -6 -40 -3 -33 2 -62 6 -64 9 -8 8 84 3 104 -6z
m-25 -42 c0 -12 38 -10 45 2 3 6 11 10 17 10 7 0 6 -6 -2 -15 -15 -18 -45 -19
-85 0 l-30 13 28 -1 c15 -1 27 -5 27 -9z"/>
<path d="M2695 2820 c-3 -5 -1 -10 4 -10 6 0 11 5 11 10 0 6 -2 10 -4 10 -3 0
-8 -4 -11 -10z"/>
<path d="M2812 2795 c0 -16 2 -22 5 -12 2 9 2 23 0 30 -3 6 -5 -1 -5 -18z"/>
<path d="M2767 2785 c-4 -8 -2 -17 3 -20 6 -4 10 3 10 14 0 25 -6 27 -13 6z"/>
<path d="M2717 2754 c-4 -4 -7 -17 -7 -28 1 -19 1 -20 11 -3 11 19 8 43 -4 31z"/>
<path d="M2671 2704 c0 -11 3 -14 6 -6 3 7 2 16 -1 19 -3 4 -6 -2 -5 -13z"/>
<path d="M2750 2704 c0 -8 5 -12 10 -9 6 3 10 10 10 16 0 5 -4 9 -10 9 -5 0
-10 -7 -10 -16z"/>
<path d="M2695 2650 c-3 -5 -1 -10 4 -10 6 0 11 5 11 10 0 6 -2 10 -4 10 -3 0
-8 -4 -11 -10z"/>
<path d="M2687 2593 c-4 -3 -7 -11 -7 -17 0 -6 5 -5 12 2 6 6 9 14 7 17 -3 3
-9 2 -12 -2z"/>
<path d="M2730 2569 c0 -5 5 -7 10 -4 6 3 10 8 10 11 0 2 -4 4 -10 4 -5 0 -10
-5 -10 -11z"/>
<path d="M2645 2550 c-3 -5 -1 -10 4 -10 6 0 11 5 11 10 0 6 -2 10 -4 10 -3 0
-8 -4 -11 -10z"/>
<path d="M2781 2534 c0 -11 3 -14 6 -6 3 7 2 16 -1 19 -3 4 -6 -2 -5 -13z"/>
<path d="M2691 2504 c0 -11 3 -14 6 -6 3 7 2 16 -1 19 -3 4 -6 -2 -5 -13z"/>
<path d="M2730 2505 c0 -8 2 -15 4 -15 2 0 6 7 10 15 3 8 1 15 -4 15 -6 0 -10
-7 -10 -15z"/>
<path d="M2651 2474 c0 -11 3 -14 6 -6 3 7 2 16 -1 19 -3 4 -6 -2 -5 -13z"/>
<path d="M2004 2286 c11 -9 24 -16 30 -16 12 0 7 5 -24 19 -24 11 -24 11 -6
-3z"/>
<path d="M2435 2241 c-11 -5 -29 -19 -40 -31 -19 -22 -18 -22 26 3 51 30 64
33 53 15 -5 -8 -1 -8 12 2 10 8 21 16 23 17 10 7 -56 1 -74 -6z"/>
<path d="M2220 2213 c14 -9 39 -28 55 -42 17 -14 12 -7 -11 17 -24 23 -49 42
-56 42 -7 0 -1 -7 12 -17z"/>
<path d="M2140 2153 c0 -18 55 -53 82 -53 17 1 13 5 -17 15 -22 8 -45 22 -52
32 -7 9 -13 12 -13 6z"/>
<path d="M1970 2026 c0 -2 8 -10 18 -17 15 -13 16 -12 3 4 -13 16 -21 21 -21
13z"/>
<path d="M2100 1895 c0 -2 14 -12 32 -23 31 -20 64 -20 52 0 -4 6 -10 5 -15
-3 -7 -11 -9 -11 -9 -1 0 7 -4 10 -10 7 -5 -3 -10 -2 -10 3 0 5 -9 12 -20 15
-11 3 -20 4 -20 2z"/>
<path d="M1243 2443 c-18 -2 -33 -8 -33 -14 0 -12 63 -12 76 1 5 5 15 6 23 1
10 -7 0 -18 -38 -47 -57 -43 -67 -69 -23 -60 15 3 46 8 69 11 69 11 66 29 -3
21 l-59 -7 48 41 c26 23 47 46 47 51 0 9 -44 10 -107 2z"/>
<path d="M3601 2436 c-7 -8 -11 -30 -9 -48 3 -29 6 -33 33 -33 17 0 30 5 30
10 0 6 9 24 20 42 14 25 22 30 32 21 18 -14 16 -43 -3 -63 -9 -9 -13 -19 -9
-23 9 -10 45 36 45 58 0 24 -28 52 -49 48 -9 -2 -25 -20 -36 -41 -11 -20 -26
-37 -33 -37 -21 0 -26 29 -8 49 9 10 16 21 16 24 0 12 -17 8 -29 -7z"/>
<path d="M3517 2133 c-10 -25 -16 -47 -15 -48 2 -2 23 -12 48 -23 76 -34 82
-33 102 21 21 57 7 64 -16 7 -14 -36 -18 -39 -36 -28 -19 12 -25 58 -8 58 4 0
8 7 8 15 0 8 -4 15 -9 15 -10 0 -27 -58 -22 -74 1 -5 -5 -4 -13 3 -8 7 -20 10
-25 6 -6 -3 -4 14 3 40 19 60 5 66 -17 8z"/>
<path d="M1348 2138 c-26 -11 -50 -29 -53 -39 -7 -22 29 -79 50 -79 24 0 105
39 105 51 0 6 -6 9 -12 6 -7 -3 -33 -13 -57 -23 -42 -17 -44 -17 -58 1 -18 25
-13 37 23 54 16 8 32 18 35 23 3 6 9 9 13 9 18 -3 26 0 26 9 0 14 -18 11 -72
-12z"/>
<path d="M1540 1890 c13 -25 8 -34 -40 -69 -24 -17 -35 -32 -31 -39 5 -9 20 0
49 25 36 33 81 55 67 33 -3 -5 0 -12 6 -15 22 -14 18 3 -12 43 -32 43 -58 58
-39 22z"/>
<path d="M3385 1884 c-34 -36 -32 -67 6 -98 38 -33 61 -33 94 -1 26 27 29 34
19 59 -9 24 -27 19 -21 -6 13 -50 -59 -69 -89 -23 -20 30 -13 52 21 65 15 6
23 14 20 20 -10 16 -24 12 -50 -16z"/>
<path d="M1714 1669 c-16 -17 -16 -22 -4 -29 8 -6 11 -10 7 -10 -5 0 0 -13 10
-30 13 -23 14 -33 5 -42 -9 -9 -16 -7 -32 7 -11 10 -20 24 -20 31 0 7 -5 16
-10 19 -6 4 -8 -3 -6 -17 3 -13 5 -26 5 -30 1 -4 15 -15 32 -24 30 -15 33 -15
52 5 l20 20 -28 41 c-24 34 -26 43 -14 51 20 13 32 6 49 -27 12 -25 15 -26 18
-9 3 12 -6 28 -22 42 -33 28 -38 28 -62 2z"/>
<path d="M3200 1676 c0 -8 3 -16 8 -18 4 -1 24 -22 44 -45 21 -23 40 -39 42
-34 8 12 -24 52 -36 45 -7 -5 -8 -2 -3 5 4 7 -2 22 -16 37 -25 27 -39 31 -39
10z"/>
<path d="M2977 1544 l-27 -15 21 -42 c12 -23 26 -45 31 -48 5 -3 9 -9 9 -13
-3 -24 0 -29 10 -19 8 8 8 17 0 32 -10 18 -7 22 18 36 21 10 29 22 29 37 -3
49 -38 61 -91 32z m63 -8 c0 -2 3 -11 6 -19 3 -10 -3 -20 -16 -27 -18 -9 -25
-8 -41 6 -19 17 -19 19 -3 31 17 12 54 18 54 9z"/>
<path d="M2702 1441 c-41 -35 -21 -71 40 -71 31 0 38 -4 38 -19 0 -22 -38 -35
-57 -19 -15 12 -28 5 -18 -11 11 -19 71 -13 91 10 22 25 9 53 -27 57 -73 8
-91 29 -46 49 19 9 26 8 34 -6 6 -9 14 -13 18 -9 11 11 -14 38 -35 38 -9 0
-27 -8 -38 -19z"/>
<path d="M2187 1443 c-4 -3 -7 -15 -7 -25 0 -10 -9 -27 -20 -38 -24 -24 -25
-34 -3 -55 11 -11 26 -15 44 -11 17 3 29 1 32 -7 2 -7 8 -9 12 -5 5 5 1 16 -8
26 -21 23 -22 50 -2 72 9 10 13 25 9 34 -6 16 -44 22 -57 9z m41 -20 c-5 -25
-28 -28 -28 -4 0 12 6 21 16 21 9 0 14 -7 12 -17z m-21 -63 c2 -24 -2 -30 -17
-30 -25 0 -27 35 -2 49 9 6 17 11 17 11 0 0 1 -14 2 -30z"/>
<path d="M2240 1355 c-8 -9 -8 -15 -2 -15 12 0 26 19 19 26 -2 2 -10 -2 -17
-11z"/>
<path d="M2108 1072 c-15 -3 -18 -15 -18 -78 0 -70 1 -74 23 -74 21 0 22 4 19
57 -4 95 -5 99 -24 95z"/>
<path d="M3352 1063 c2 -10 10 -18 18 -18 22 0 18 29 -3 33 -14 3 -18 -1 -15
-15z"/>
<path d="M3428 1073 c-15 -4 -18 -16 -18 -79 0 -67 2 -74 20 -74 18 0 20 7 20
80 0 44 -1 79 -2 79 -2 -1 -11 -3 -20 -6z"/>
<path d="M1639 995 c27 -78 46 -92 62 -47 5 13 5 21 0 18 -8 -5 -31 58 -31 88
0 11 -9 16 -28 16 l-29 0 26 -75z"/>
<path d="M1706 1053 c4 -10 7 -28 7 -41 -1 -13 2 -21 5 -17 4 3 11 -11 17 -32
11 -40 41 -57 47 -26 2 10 -3 31 -11 47 -8 17 -14 42 -14 58 0 24 -4 28 -30
28 -24 0 -28 -3 -21 -17z"/>
<path d="M1810 1055 c0 -8 2 -15 4 -15 2 0 6 7 10 15 3 8 1 15 -4 15 -6 0 -10
-7 -10 -15z"/>
<path d="M1845 995 c0 -69 2 -75 21 -75 18 0 21 6 20 41 -1 25 4 44 12 46 8 3
12 -9 12 -41 0 -41 2 -46 23 -46 20 0 22 4 19 43 -5 53 -19 70 -49 62 -21 -5
-24 -2 -21 17 2 17 -2 24 -17 26 -18 3 -20 -3 -20 -73z"/>
<path d="M2475 995 c0 -72 1 -75 24 -75 17 0 22 4 17 16 -3 9 -6 42 -6 75 0
50 -3 59 -17 59 -16 0 -18 -10 -18 -75z"/>
<path d="M2710 1055 c-6 -8 -9 -23 -5 -35 4 -12 1 -27 -5 -35 -6 -8 -10 -24
-8 -37 3 -21 8 -23 70 -24 l67 -1 -34 40 c-33 38 -34 42 -19 58 9 10 14 25 11
34 -9 23 -24 18 -23 -7 1 -14 -5 -23 -14 -23 -9 0 -15 9 -14 23 1 25 -8 28
-26 7z m50 -113 c-20 -7 -40 7 -40 29 l0 22 26 -24 c14 -13 20 -25 14 -27z"/>
<path d="M2900 995 c0 -71 1 -75 23 -75 21 0 22 3 19 70 -2 58 0 70 13 70 21
0 31 -29 16 -51 -18 -30 10 -89 44 -89 23 0 24 2 13 23 -7 12 -19 29 -26 38
-11 14 -10 18 3 22 21 9 19 44 -4 57 -11 5 -38 10 -60 10 l-41 0 0 -75z"/>
<path d="M3167 1036 c-11 -9 -17 -27 -17 -53 0 -43 14 -63 44 -63 16 0 17 3 8
12 -7 7 -12 29 -12 50 0 29 4 38 18 39 13 0 14 2 2 6 -8 3 -17 9 -20 14 -3 4
-13 2 -23 -5z"/>
<path d="M1992 1023 c-25 -10 -34 -53 -17 -79 23 -36 36 -29 30 14 -6 41 6 69
25 57 8 -5 11 -23 7 -51 -5 -49 4 -56 27 -22 21 30 20 44 -4 68 -20 20 -42 24
-68 13z"/>
<path d="M2198 1023 c6 -2 12 -11 12 -19 0 -8 9 -14 20 -14 11 0 20 2 20 4 0
12 -33 36 -48 35 -11 0 -12 -2 -4 -6z"/>
<path d="M2316 1016 c21 -15 30 -14 19 3 -3 6 -14 11 -23 11 -13 0 -13 -2 4
-14z"/>
<path d="M2380 1020 c-12 -8 -11 -10 7 -10 19 0 22 -6 25 -42 2 -34 7 -44 23
-46 18 -3 20 2 17 40 -5 57 -35 82 -72 58z"/>
<path d="M2587 1010 c3 -11 14 -20 24 -20 25 0 24 16 0 30 -27 14 -30 13 -24
-10z"/>
<path d="M3097 1010 c3 -11 14 -20 24 -20 25 0 24 16 0 30 -27 14 -30 13 -24
-10z"/>
<path d="M3245 1020 c-3 -5 3 -10 14 -10 29 0 26 -24 -4 -38 -32 -15 -34 -52
-4 -52 15 0 19 4 15 16 -3 9 -3 21 1 27 4 7 9 2 13 -13 3 -15 14 -26 26 -28
17 -2 19 2 16 40 -2 24 -9 49 -14 56 -12 14 -54 16 -63 2z"/>
<path d="M3365 1023 c-17 -3 -20 -12 -20 -53 0 -45 2 -50 23 -50 20 0 22 5 22
55 0 30 -1 54 -2 54 -2 -1 -12 -4 -23 -6z"/>
<path d="M2163 1009 c-16 -16 -17 -44 -3 -70 13 -24 62 -26 81 -3 12 15 11 16
-7 10 -24 -7 -50 17 -56 52 -2 19 -5 21 -15 11z"/>
<path d="M2267 1014 c-17 -18 -6 -46 24 -56 19 -7 28 -15 25 -24 -7 -18 8 -18
23 0 16 19 3 45 -25 52 -13 4 -28 13 -32 20 -5 8 -11 11 -15 8z"/>
<path d="M2542 1003 c-17 -30 -15 -47 6 -66 23 -21 56 -22 71 -3 10 12 9 14
-6 10 -23 -6 -50 22 -55 56 l-3 25 -13 -22z"/>
<path d="M3052 1008 c-15 -15 -16 -43 -2 -69 13 -24 62 -26 81 -3 12 15 11 16
-6 11 -28 -9 -46 5 -53 42 -6 26 -10 29 -20 19z"/>
<path d="M2800 990 c-10 -18 -9 -19 15 -8 27 12 33 28 10 28 -8 0 -19 -9 -25
-20z"/>
<path d="M2367 963 c-15 -14 -7 -43 12 -43 14 0 19 7 17 25 -1 24 -15 33 -29
18z"/>
<path d="M2260 935 c0 -8 7 -15 16 -15 14 0 14 3 4 15 -7 8 -14 15 -16 15 -2
0 -4 -7 -4 -15z"/>
</g>
</svg>
